# xmcd
#
# Track frame offsets: 
#        150
#        20037
#        36657
#
# Disc length: 782 seconds
#
# Revision: 0
# Processed by: cddbd v1.5.2PL0 Copyright (c) Steve Scherf et al.
# Submitted via: ExactAudioCopy v0.99pb5
#
DISCID=25030c03
DTITLE=Eric Clapton - Riding With The King [CD Single)
DYEAR=1900
DGENRE=Blues
TTITLE0=Riding With The King
TTITLE1=Key To The Highway
TTITLE2=Let Me Love You [Non-Album Track]
EXTD=
EXTT0=
EXTT1=
EXTT2=
PLAYORDER=
